<svg width="420" height="630" viewBox="0 0 420 630" fill="none" xmlns="http://www.w3.org/2000/svg">
<rect width="420" height="630" fill="url(#paint0_radial_27_3)"/>
<mask id="path-2-outside-1_27_3" maskUnits="userSpaceOnUse" x="27" y="87" width="22" height="280" fill="black">
<rect fill="white" x="27" y="87" width="22" height="280"/>
<path d="M32.94 88.8H43.74L46.656 93.192L43.776 96.216L41.58 92.904H34.596L33.948 93.624V108.348L34.992 109.932H41.904L44.46 107.376L46.728 110.76L43.632 114H32.832L29.592 109.176V92.184L32.94 88.8ZM29.088 130.8H42.3L46.512 136.956V141.168L43.2 144.588L46.512 149.448V156H42.156V150.204L38.88 145.416H35.352L33.444 144.228V156H29.088V130.8ZM33.444 134.868V141.348H40.752L42.156 139.908V137.82L40.104 134.868H33.444ZM42.12 172.8H46.476V179.748L39.96 186.48V198H35.604V186.732L29.088 177.048V172.8H33.444V176.328L37.8 182.808H37.872L42.12 178.38V172.8ZM32.508 214.8H43.416L45.9 218.544L42.948 221.424L41.22 218.868H34.2L33.552 219.552V223.764L34.632 225.348H43.74L46.62 229.704V236.94L43.668 240H31.104L28.98 236.976L31.824 234.024L33.228 235.932H41.868L42.264 235.608V230.424L41.544 229.416H32.436L29.196 224.592V218.256L32.508 214.8ZM28.404 256.8H47.196V260.868H37.62L39.996 262.992V282H35.64V264L34.596 260.868H28.404V256.8ZM36.108 298.8H45.72V324H41.364V313.236H34.164V324H29.88V305.244L36.108 298.8ZM34.164 306.504V309.168H41.364V302.868H37.692L34.164 306.504ZM29.088 340.8H33.444V360.312L34.56 361.932H42.156V359.304H46.512V366H32.364L29.088 361.032V340.8Z"/>
</mask>
<path d="M32.94 88.8H43.74L46.656 93.192L43.776 96.216L41.58 92.904H34.596L33.948 93.624V108.348L34.992 109.932H41.904L44.46 107.376L46.728 110.76L43.632 114H32.832L29.592 109.176V92.184L32.94 88.8ZM29.088 130.8H42.3L46.512 136.956V141.168L43.2 144.588L46.512 149.448V156H42.156V150.204L38.88 145.416H35.352L33.444 144.228V156H29.088V130.8ZM33.444 134.868V141.348H40.752L42.156 139.908V137.82L40.104 134.868H33.444ZM42.12 172.8H46.476V179.748L39.96 186.48V198H35.604V186.732L29.088 177.048V172.8H33.444V176.328L37.8 182.808H37.872L42.12 178.38V172.8ZM32.508 214.8H43.416L45.9 218.544L42.948 221.424L41.22 218.868H34.2L33.552 219.552V223.764L34.632 225.348H43.74L46.62 229.704V236.94L43.668 240H31.104L28.98 236.976L31.824 234.024L33.228 235.932H41.868L42.264 235.608V230.424L41.544 229.416H32.436L29.196 224.592V218.256L32.508 214.8ZM28.404 256.8H47.196V260.868H37.62L39.996 262.992V282H35.64V264L34.596 260.868H28.404V256.8ZM36.108 298.8H45.72V324H41.364V313.236H34.164V324H29.88V305.244L36.108 298.8ZM34.164 306.504V309.168H41.364V302.868H37.692L34.164 306.504ZM29.088 340.8H33.444V360.312L34.56 361.932H42.156V359.304H46.512V366H32.364L29.088 361.032V340.8Z" fill="#D3D3D3" fill-opacity="0.1"/>
<path d="M32.94 88.8V87.8H32.5227L32.2291 88.0967L32.94 88.8ZM43.74 88.8L44.5731 88.2469L44.2764 87.8H43.74V88.8ZM46.656 93.192L47.3801 93.8817L47.9305 93.3037L47.4891 92.6389L46.656 93.192ZM43.776 96.216L42.9426 96.7686L43.6354 97.8136L44.5001 96.9057L43.776 96.216ZM41.58 92.904L42.4134 92.3514L42.1168 91.904H41.58V92.904ZM34.596 92.904V91.904H34.1506L33.8527 92.235L34.596 92.904ZM33.948 93.624L33.2047 92.955L32.948 93.2403V93.624H33.948ZM33.948 108.348H32.948V108.648L33.113 108.898L33.948 108.348ZM34.992 109.932L34.157 110.482L34.4534 110.932H34.992V109.932ZM41.904 109.932V110.932H42.3182L42.6111 110.639L41.904 109.932ZM44.46 107.376L45.2907 106.819L44.6133 105.809L43.7529 106.669L44.46 107.376ZM46.728 110.76L47.451 111.451L48.0057 110.87L47.5587 110.203L46.728 110.76ZM43.632 114V115H44.0596L44.355 114.691L43.632 114ZM32.832 114L32.0019 114.558L32.299 115H32.832V114ZM29.592 109.176H28.592V109.481L28.7619 109.734L29.592 109.176ZM29.592 92.184L28.8811 91.4807L28.592 91.7729V92.184H29.592ZM32.94 88.8V89.8H43.74V88.8V87.8H32.94V88.8ZM43.74 88.8L42.9069 89.3531L45.8229 93.7451L46.656 93.192L47.4891 92.6389L44.5731 88.2469L43.74 88.8ZM46.656 93.192L45.9319 92.5023L43.0519 95.5263L43.776 96.216L44.5001 96.9057L47.3801 93.8817L46.656 93.192ZM43.776 96.216L44.6094 95.6634L42.4134 92.3514L41.58 92.904L40.7466 93.4566L42.9426 96.7686L43.776 96.216ZM41.58 92.904V91.904H34.596V92.904V93.904H41.58V92.904ZM34.596 92.904L33.8527 92.235L33.2047 92.955L33.948 93.624L34.6913 94.293L35.3393 93.573L34.596 92.904ZM33.948 93.624H32.948V108.348H33.948H34.948V93.624H33.948ZM33.948 108.348L33.113 108.898L34.157 110.482L34.992 109.932L35.827 109.382L34.783 107.798L33.948 108.348ZM34.992 109.932V110.932H41.904V109.932V108.932H34.992V109.932ZM41.904 109.932L42.6111 110.639L45.1671 108.083L44.46 107.376L43.7529 106.669L41.1969 109.225L41.904 109.932ZM44.46 107.376L43.6293 107.933L45.8973 111.317L46.728 110.76L47.5587 110.203L45.2907 106.819L44.46 107.376ZM46.728 110.76L46.005 110.069L42.909 113.309L43.632 114L44.355 114.691L47.451 111.451L46.728 110.76ZM43.632 114V113H32.832V114V115H43.632V114ZM32.832 114L33.6621 113.442L30.4221 108.618L29.592 109.176L28.7619 109.734L32.0019 114.558L32.832 114ZM29.592 109.176H30.592V92.184H29.592H28.592V109.176H29.592ZM29.592 92.184L30.3029 92.8873L33.6509 89.5033L32.94 88.8L32.2291 88.0967L28.8811 91.4807L29.592 92.184ZM29.088 130.8V129.8H28.088V130.8H29.088ZM42.3 130.8L43.1253 130.235L42.8275 129.8H42.3V130.8ZM46.512 136.956H47.512V136.647L47.3373 136.391L46.512 136.956ZM46.512 141.168L47.2304 141.864L47.512 141.573V141.168H46.512ZM43.2 144.588L42.4816 143.892L41.9147 144.478L42.3736 145.151L43.2 144.588ZM46.512 149.448H47.512V149.14L47.3384 148.885L46.512 149.448ZM46.512 156V157H47.512V156H46.512ZM42.156 156H41.156V157H42.156V156ZM42.156 150.204H43.156V149.895L42.9813 149.639L42.156 150.204ZM38.88 145.416L39.7053 144.851L39.4075 144.416H38.88V145.416ZM35.352 145.416L34.8234 146.265L35.0661 146.416H35.352V145.416ZM33.444 144.228L33.9726 143.379L32.444 142.427V144.228H33.444ZM33.444 156V157H34.444V156H33.444ZM29.088 156H28.088V157H29.088V156ZM33.444 134.868V133.868H32.444V134.868H33.444ZM33.444 141.348H32.444V142.348H33.444V141.348ZM40.752 141.348V142.348H41.1736L41.468 142.046L40.752 141.348ZM42.156 139.908L42.872 140.606L43.156 140.315V139.908H42.156ZM42.156 137.82H43.156V137.507L42.9771 137.249L42.156 137.82ZM40.104 134.868L40.9251 134.297L40.6267 133.868H40.104V134.868ZM29.088 130.8V131.8H42.3V130.8V129.8H29.088V130.8ZM42.3 130.8L41.4747 131.365L45.6867 137.521L46.512 136.956L47.3373 136.391L43.1253 130.235L42.3 130.8ZM46.512 136.956H45.512V141.168H46.512H47.512V136.956H46.512ZM46.512 141.168L45.7936 140.472L42.4816 143.892L43.2 144.588L43.9184 145.284L47.2304 141.864L46.512 141.168ZM43.2 144.588L42.3736 145.151L45.6856 150.011L46.512 149.448L47.3384 148.885L44.0264 144.025L43.2 144.588ZM46.512 149.448H45.512V156H46.512H47.512V149.448H46.512ZM46.512 156V155H42.156V156V157H46.512V156ZM42.156 156H43.156V150.204H42.156H41.156V156H42.156ZM42.156 150.204L42.9813 149.639L39.7053 144.851L38.88 145.416L38.0547 145.981L41.3307 150.769L42.156 150.204ZM38.88 145.416V144.416H35.352V145.416V146.416H38.88V145.416ZM35.352 145.416L35.8806 144.567L33.9726 143.379L33.444 144.228L32.9154 145.077L34.8234 146.265L35.352 145.416ZM33.444 144.228H32.444V156H33.444H34.444V144.228H33.444ZM33.444 156V155H29.088V156V157H33.444V156ZM29.088 156H30.088V130.8H29.088H28.088V156H29.088ZM33.444 134.868H32.444V141.348H33.444H34.444V134.868H33.444ZM33.444 141.348V142.348H40.752V141.348V140.348H33.444V141.348ZM40.752 141.348L41.468 142.046L42.872 140.606L42.156 139.908L41.44 139.21L40.036 140.65L40.752 141.348ZM42.156 139.908H43.156V137.82H42.156H41.156V139.908H42.156ZM42.156 137.82L42.9771 137.249L40.9251 134.297L40.104 134.868L39.2829 135.439L41.3349 138.391L42.156 137.82ZM40.104 134.868V133.868H33.444V134.868V135.868H40.104V134.868ZM42.12 172.8V171.8H41.12V172.8H42.12ZM46.476 172.8H47.476V171.8H46.476V172.8ZM46.476 179.748L47.1945 180.443L47.476 180.153V179.748H46.476ZM39.96 186.48L39.2415 185.785L38.96 186.075V186.48H39.96ZM39.96 198V199H40.96V198H39.96ZM35.604 198H34.604V199H35.604V198ZM35.604 186.732H36.604V186.427L36.4337 186.174L35.604 186.732ZM29.088 177.048H28.088V177.353L28.2583 177.606L29.088 177.048ZM29.088 172.8V171.8H28.088V172.8H29.088ZM33.444 172.8H34.444V171.8H33.444V172.8ZM33.444 176.328H32.444V176.633L32.6141 176.886L33.444 176.328ZM37.8 182.808L36.9701 183.366L37.2673 183.808H37.8V182.808ZM37.872 182.808V183.808H38.2984L38.5936 183.5L37.872 182.808ZM42.12 178.38L42.8416 179.072L43.12 178.782V178.38H42.12ZM42.12 172.8V173.8H46.476V172.8V171.8H42.12V172.8ZM46.476 172.8H45.476V179.748H46.476H47.476V172.8H46.476ZM46.476 179.748L45.7575 179.053L39.2415 185.785L39.96 186.48L40.6785 187.175L47.1945 180.443L46.476 179.748ZM39.96 186.48H38.96V198H39.96H40.96V186.48H39.96ZM39.96 198V197H35.604V198V199H39.96V198ZM35.604 198H36.604V186.732H35.604H34.604V198H35.604ZM35.604 186.732L36.4337 186.174L29.9177 176.49L29.088 177.048L28.2583 177.606L34.7743 187.29L35.604 186.732ZM29.088 177.048H30.088V172.8H29.088H28.088V177.048H29.088ZM29.088 172.8V173.8H33.444V172.8V171.8H29.088V172.8ZM33.444 172.8H32.444V176.328H33.444H34.444V172.8H33.444ZM33.444 176.328L32.6141 176.886L36.9701 183.366L37.8 182.808L38.6299 182.25L34.2739 175.77L33.444 176.328ZM37.8 182.808V183.808H37.872V182.808V181.808H37.8V182.808ZM37.872 182.808L38.5936 183.5L42.8416 179.072L42.12 178.38L41.3984 177.688L37.1504 182.116L37.872 182.808ZM42.12 178.38H43.12V172.8H42.12H41.12V178.38H42.12ZM32.508 214.8V213.8H32.0813L31.786 214.108L32.508 214.8ZM43.416 214.8L44.2493 214.247L43.9526 213.8H43.416V214.8ZM45.9 218.544L46.5983 219.26L47.1912 218.681L46.7333 217.991L45.9 218.544ZM42.948 221.424L42.1196 221.984L42.7898 222.975L43.6463 222.14L42.948 221.424ZM41.22 218.868L42.0484 218.308L41.751 217.868H41.22V218.868ZM34.2 218.868V217.868H33.7699L33.474 218.18L34.2 218.868ZM33.552 219.552L32.826 218.864L32.552 219.154V219.552H33.552ZM33.552 223.764H32.552V224.072L32.7258 224.327L33.552 223.764ZM34.632 225.348L33.8058 225.911L34.1035 226.348H34.632V225.348ZM43.74 225.348L44.5742 224.796L44.2776 224.348H43.74V225.348ZM46.62 229.704H47.62V229.403L47.4542 229.152L46.62 229.704ZM46.62 236.94L47.3397 237.634L47.62 237.344V236.94H46.62ZM43.668 240V241H44.0928L44.3877 240.694L43.668 240ZM31.104 240L30.2857 240.575L30.5844 241H31.104V240ZM28.98 236.976L28.2598 236.282L27.6877 236.876L28.1617 237.551L28.98 236.976ZM31.824 234.024L32.6294 233.431L31.9266 232.476L31.1038 233.33L31.824 234.024ZM33.228 235.932L32.4226 236.525L32.7223 236.932H33.228V235.932ZM41.868 235.932V236.932H42.225L42.5012 236.706L41.868 235.932ZM42.264 235.608L42.8972 236.382L43.264 236.082V235.608H42.264ZM42.264 230.424H43.264V230.104L43.0777 229.843L42.264 230.424ZM41.544 229.416L42.3577 228.835L42.0586 228.416H41.544V229.416ZM32.436 229.416L31.6059 229.974L31.903 230.416H32.436V229.416ZM29.196 224.592H28.196V224.897L28.3659 225.15L29.196 224.592ZM29.196 218.256L28.474 217.564L28.196 217.854V218.256H29.196ZM32.508 214.8V215.8H43.416V214.8V213.8H32.508V214.8ZM43.416 214.8L42.5827 215.353L45.0667 219.097L45.9 218.544L46.7333 217.991L44.2493 214.247L43.416 214.8ZM45.9 218.544L45.2017 217.828L42.2497 220.708L42.948 221.424L43.6463 222.14L46.5983 219.26L45.9 218.544ZM42.948 221.424L43.7764 220.864L42.0484 218.308L41.22 218.868L40.3916 219.428L42.1196 221.984L42.948 221.424ZM41.22 218.868V217.868H34.2V218.868V219.868H41.22V218.868ZM34.2 218.868L33.474 218.18L32.826 218.864L33.552 219.552L34.278 220.24L34.926 219.556L34.2 218.868ZM33.552 219.552H32.552V223.764H33.552H34.552V219.552H33.552ZM33.552 223.764L32.7258 224.327L33.8058 225.911L34.632 225.348L35.4582 224.785L34.3782 223.201L33.552 223.764ZM34.632 225.348V226.348H43.74V225.348V224.348H34.632V225.348ZM43.74 225.348L42.9058 225.9L45.7858 230.256L46.62 229.704L47.4542 229.152L44.5742 224.796L43.74 225.348ZM46.62 229.704H45.62V236.94H46.62H47.62V229.704H46.62ZM46.62 236.94L45.9003 236.246L42.9483 239.306L43.668 240L44.3877 240.694L47.3397 237.634L46.62 236.94ZM43.668 240V239H31.104V240V241H43.668V240ZM31.104 240L31.9223 239.425L29.7983 236.401L28.98 236.976L28.1617 237.551L30.2857 240.575L31.104 240ZM28.98 236.976L29.7002 237.67L32.5442 234.718L31.824 234.024L31.1038 233.33L28.2598 236.282L28.98 236.976ZM31.824 234.024L31.0186 234.617L32.4226 236.525L33.228 235.932L34.0334 235.339L32.6294 233.431L31.824 234.024ZM33.228 235.932V236.932H41.868V235.932V234.932H33.228V235.932ZM41.868 235.932L42.5012 236.706L42.8972 236.382L42.264 235.608L41.6308 234.834L41.2348 235.158L41.868 235.932ZM42.264 235.608H43.264V230.424H42.264H41.264V235.608H42.264ZM42.264 230.424L43.0777 229.843L42.3577 228.835L41.544 229.416L40.7303 229.997L41.4503 231.005L42.264 230.424ZM41.544 229.416V228.416H32.436V229.416V230.416H41.544V229.416ZM32.436 229.416L33.2661 228.858L30.0261 224.034L29.196 224.592L28.3659 225.15L31.6059 229.974L32.436 229.416ZM29.196 224.592H30.196V218.256H29.196H28.196V224.592H29.196ZM29.196 218.256L29.918 218.948L33.23 215.492L32.508 214.8L31.786 214.108L28.474 217.564L29.196 218.256ZM28.404 256.8V255.8H27.404V256.8H28.404ZM47.196 256.8H48.196V255.8H47.196V256.8ZM47.196 260.868V261.868H48.196V260.868H47.196ZM37.62 260.868V259.868H35.0009L36.9535 261.614L37.62 260.868ZM39.996 262.992H40.996V262.545L40.6625 262.246L39.996 262.992ZM39.996 282V283H40.996V282H39.996ZM35.64 282H34.64V283H35.64V282ZM35.64 264H36.64V263.838L36.5887 263.684L35.64 264ZM34.596 260.868L35.5447 260.552L35.3168 259.868H34.596V260.868ZM28.404 260.868H27.404V261.868H28.404V260.868ZM28.404 256.8V257.8H47.196V256.8V255.8H28.404V256.8ZM47.196 256.8H46.196V260.868H47.196H48.196V256.8H47.196ZM47.196 260.868V259.868H37.62V260.868V261.868H47.196V260.868ZM37.62 260.868L36.9535 261.614L39.3295 263.738L39.996 262.992L40.6625 262.246L38.2865 260.122L37.62 260.868ZM39.996 262.992H38.996V282H39.996H40.996V262.992H39.996ZM39.996 282V281H35.64V282V283H39.996V282ZM35.64 282H36.64V264H35.64H34.64V282H35.64ZM35.64 264L36.5887 263.684L35.5447 260.552L34.596 260.868L33.6473 261.184L34.6913 264.316L35.64 264ZM34.596 260.868V259.868H28.404V260.868V261.868H34.596V260.868ZM28.404 260.868H29.404V256.8H28.404H27.404V260.868H28.404ZM36.108 298.8V297.8H35.6838L35.3889 298.105L36.108 298.8ZM45.72 298.8H46.72V297.8H45.72V298.8ZM45.72 324V325H46.72V324H45.72ZM41.364 324H40.364V325H41.364V324ZM41.364 313.236H42.364V312.236H41.364V313.236ZM34.164 313.236V312.236H33.164V313.236H34.164ZM34.164 324V325H35.164V324H34.164ZM29.88 324H28.88V325H29.88V324ZM29.88 305.244L29.1609 304.549L28.88 304.84V305.244H29.88ZM34.164 306.504L33.4463 305.808L33.164 306.099V306.504H34.164ZM34.164 309.168H33.164V310.168H34.164V309.168ZM41.364 309.168V310.168H42.364V309.168H41.364ZM41.364 302.868H42.364V301.868H41.364V302.868ZM37.692 302.868V301.868H37.2689L36.9743 302.172L37.692 302.868ZM36.108 298.8V299.8H45.72V298.8V297.8H36.108V298.8ZM45.72 298.8H44.72V324H45.72H46.72V298.8H45.72ZM45.72 324V323H41.364V324V325H45.72V324ZM41.364 324H42.364V313.236H41.364H40.364V324H41.364ZM41.364 313.236V312.236H34.164V313.236V314.236H41.364V313.236ZM34.164 313.236H33.164V324H34.164H35.164V313.236H34.164ZM34.164 324V323H29.88V324V325H34.164V324ZM29.88 324H30.88V305.244H29.88H28.88V324H29.88ZM29.88 305.244L30.5991 305.939L36.8271 299.495L36.108 298.8L35.3889 298.105L29.1609 304.549L29.88 305.244ZM34.164 306.504H33.164V309.168H34.164H35.164V306.504H34.164ZM34.164 309.168V310.168H41.364V309.168V308.168H34.164V309.168ZM41.364 309.168H42.364V302.868H41.364H40.364V309.168H41.364ZM41.364 302.868V301.868H37.692V302.868V303.868H41.364V302.868ZM37.692 302.868L36.9743 302.172L33.4463 305.808L34.164 306.504L34.8817 307.2L38.4097 303.564L37.692 302.868ZM29.088 340.8V339.8H28.088V340.8H29.088ZM33.444 340.8H34.444V339.8H33.444V340.8ZM33.444 360.312H32.444V360.623L32.6205 360.879L33.444 360.312ZM34.56 361.932L33.7365 362.499L34.0346 362.932H34.56V361.932ZM42.156 361.932V362.932H43.156V361.932H42.156ZM42.156 359.304V358.304H41.156V359.304H42.156ZM46.512 359.304H47.512V358.304H46.512V359.304ZM46.512 366V367H47.512V366H46.512ZM32.364 366L31.5292 366.551L31.8256 367H32.364V366ZM29.088 361.032H28.088V361.332L28.2532 361.583L29.088 361.032ZM29.088 340.8V341.8H33.444V340.8V339.8H29.088V340.8ZM33.444 340.8H32.444V360.312H33.444H34.444V340.8H33.444ZM33.444 360.312L32.6205 360.879L33.7365 362.499L34.56 361.932L35.3835 361.365L34.2675 359.745L33.444 360.312ZM34.56 361.932V362.932H42.156V361.932V360.932H34.56V361.932ZM42.156 361.932H43.156V359.304H42.156H41.156V361.932H42.156ZM42.156 359.304V360.304H46.512V359.304V358.304H42.156V359.304ZM46.512 359.304H45.512V366H46.512H47.512V359.304H46.512ZM46.512 366V365H32.364V366V367H46.512V366ZM32.364 366L33.1988 365.449L29.9228 360.481L29.088 361.032L28.2532 361.583L31.5292 366.551L32.364 366ZM29.088 361.032H30.088V340.8H29.088H28.088V361.032H29.088Z" fill="#D3D3D3" mask="url(#path-2-outside-1_27_3)"/>
<mask id="path-4-outside-2_27_3" maskUnits="userSpaceOnUse" x="27" y="407" width="22" height="196" fill="black">
<rect fill="white" x="27" y="407" width="22" height="196"/>
<path d="M29.124 408.8H44.136L46.188 411.716V415.568L42.66 419.24H42.84L46.512 424.64V431.912L43.128 434H29.124V408.8ZM33.48 412.832V419.24H37.044L41.796 414.236V412.832H33.48ZM33.48 423.272V429.932H42.192V425.36L40.68 423.272H33.48ZM32.472 450.8H43.308L46.476 455.624V472.544L43.2 476H32.4L29.124 471.176V454.256L32.472 450.8ZM33.48 470.384L34.524 471.932H41.436L42.12 471.212V456.416L41.076 454.868H34.128L33.48 455.588V470.384ZM28.368 492.8H32.724V510.368L34.416 512.888H34.596L35.604 511.916V502.34H39.96V510.872L41.184 512.924H41.328L42.84 511.268V492.8H47.196V513.176L42.516 518H39.132L37.944 515.948L36.036 518H32.688L28.368 511.592V492.8ZM29.088 534.8H46.512V538.868H39.96V555.932H46.512V560H29.088V555.932H35.604V538.868H29.088V534.8ZM32.076 576.8H46.116V580.868H33.732L33.084 581.588V587.24H41.4V591.308H33.084V596.348L34.128 597.932H46.116V602H31.968L28.728 597.176V580.22L32.076 576.8Z"/>
</mask>
<path d="M29.124 408.8H44.136L46.188 411.716V415.568L42.66 419.24H42.84L46.512 424.64V431.912L43.128 434H29.124V408.8ZM33.48 412.832V419.24H37.044L41.796 414.236V412.832H33.48ZM33.48 423.272V429.932H42.192V425.36L40.68 423.272H33.48ZM32.472 450.8H43.308L46.476 455.624V472.544L43.2 476H32.4L29.124 471.176V454.256L32.472 450.8ZM33.48 470.384L34.524 471.932H41.436L42.12 471.212V456.416L41.076 454.868H34.128L33.48 455.588V470.384ZM28.368 492.8H32.724V510.368L34.416 512.888H34.596L35.604 511.916V502.34H39.96V510.872L41.184 512.924H41.328L42.84 511.268V492.8H47.196V513.176L42.516 518H39.132L37.944 515.948L36.036 518H32.688L28.368 511.592V492.8ZM29.088 534.8H46.512V538.868H39.96V555.932H46.512V560H29.088V555.932H35.604V538.868H29.088V534.8ZM32.076 576.8H46.116V580.868H33.732L33.084 581.588V587.24H41.4V591.308H33.084V596.348L34.128 597.932H46.116V602H31.968L28.728 597.176V580.22L32.076 576.8Z" fill="#D3D3D3" fill-opacity="0.1"/>
<path d="M29.124 408.8V407.8H28.124V408.8H29.124ZM44.136 408.8L44.9538 408.225L44.6551 407.8H44.136V408.8ZM46.188 411.716H47.188V411.399L47.0058 411.141L46.188 411.716ZM46.188 415.568L46.9091 416.261L47.188 415.971V415.568H46.188ZM42.66 419.24L41.9389 418.547L40.3125 420.24H42.66V419.24ZM42.84 419.24L43.6669 418.678L43.3693 418.24H42.84V419.24ZM46.512 424.64H47.512V424.332L47.3389 424.078L46.512 424.64ZM46.512 431.912L47.0371 432.763L47.512 432.47V431.912H46.512ZM43.128 434V435H43.4117L43.6531 434.851L43.128 434ZM29.124 434H28.124V435H29.124V434ZM33.48 412.832V411.832H32.48V412.832H33.48ZM33.48 419.24H32.48V420.24H33.48V419.24ZM37.044 419.24V420.24H37.4734L37.7691 419.929L37.044 419.24ZM41.796 414.236L42.5211 414.925L42.796 414.635V414.236H41.796ZM41.796 412.832H42.796V411.832H41.796V412.832ZM33.48 423.272V422.272H32.48V423.272H33.48ZM33.48 429.932H32.48V430.932H33.48V429.932ZM42.192 429.932V430.932H43.192V429.932H42.192ZM42.192 425.36H43.192V425.036L43.0019 424.773L42.192 425.36ZM40.68 423.272L41.4899 422.685L41.1905 422.272H40.68V423.272ZM29.124 408.8V409.8H44.136V408.8V407.8H29.124V408.8ZM44.136 408.8L43.3182 409.375L45.3702 412.291L46.188 411.716L47.0058 411.141L44.9538 408.225L44.136 408.8ZM46.188 411.716H45.188V415.568H46.188H47.188V411.716H46.188ZM46.188 415.568L45.4669 414.875L41.9389 418.547L42.66 419.24L43.3811 419.933L46.9091 416.261L46.188 415.568ZM42.66 419.24V420.24H42.84V419.24V418.24H42.66V419.24ZM42.84 419.24L42.0131 419.802L45.6851 425.202L46.512 424.64L47.3389 424.078L43.6669 418.678L42.84 419.24ZM46.512 424.64H45.512V431.912H46.512H47.512V424.64H46.512ZM46.512 431.912L45.9869 431.061L42.6029 433.149L43.128 434L43.6531 434.851L47.0371 432.763L46.512 431.912ZM43.128 434V433H29.124V434V435H43.128V434ZM29.124 434H30.124V408.8H29.124H28.124V434H29.124ZM33.48 412.832H32.48V419.24H33.48H34.48V412.832H33.48ZM33.48 419.24V420.24H37.044V419.24V418.24H33.48V419.24ZM37.044 419.24L37.7691 419.929L42.5211 414.925L41.796 414.236L41.0709 413.547L36.3189 418.551L37.044 419.24ZM41.796 414.236H42.796V412.832H41.796H40.796V414.236H41.796ZM41.796 412.832V411.832H33.48V412.832V413.832H41.796V412.832ZM33.48 423.272H32.48V429.932H33.48H34.48V423.272H33.48ZM33.48 429.932V430.932H42.192V429.932V428.932H33.48V429.932ZM42.192 429.932H43.192V425.36H42.192H41.192V429.932H42.192ZM42.192 425.36L43.0019 424.773L41.4899 422.685L40.68 423.272L39.8701 423.859L41.3821 425.947L42.192 425.36ZM40.68 423.272V422.272H33.48V423.272V424.272H40.68V423.272ZM32.472 450.8V449.8H32.0485L31.7538 450.104L32.472 450.8ZM43.308 450.8L44.1439 450.251L43.8476 449.8H43.308V450.8ZM46.476 455.624H47.476V455.325L47.3119 455.075L46.476 455.624ZM46.476 472.544L47.2018 473.232L47.476 472.943V472.544H46.476ZM43.2 476V477H43.63L43.9258 476.688L43.2 476ZM32.4 476L31.5727 476.562L31.8703 477H32.4V476ZM29.124 471.176H28.124V471.483L28.2967 471.738L29.124 471.176ZM29.124 454.256L28.4058 453.56L28.124 453.851V454.256H29.124ZM33.48 470.384H32.48V470.69L32.6509 470.943L33.48 470.384ZM34.524 471.932L33.6949 472.491L33.9923 472.932H34.524V471.932ZM41.436 471.932V472.932H41.8653L42.161 472.621L41.436 471.932ZM42.12 471.212L42.845 471.901L43.12 471.611V471.212H42.12ZM42.12 456.416H43.12V456.11L42.9491 455.857L42.12 456.416ZM41.076 454.868L41.9051 454.309L41.6078 453.868H41.076V454.868ZM34.128 454.868V453.868H33.6826L33.3847 454.199L34.128 454.868ZM33.48 455.588L32.7367 454.919L32.48 455.204V455.588H33.48ZM32.472 450.8V451.8H43.308V450.8V449.8H32.472V450.8ZM43.308 450.8L42.4721 451.349L45.6401 456.173L46.476 455.624L47.3119 455.075L44.1439 450.251L43.308 450.8ZM46.476 455.624H45.476V472.544H46.476H47.476V455.624H46.476ZM46.476 472.544L45.7502 471.856L42.4742 475.312L43.2 476L43.9258 476.688L47.2018 473.232L46.476 472.544ZM43.2 476V475H32.4V476V477H43.2V476ZM32.4 476L33.2273 475.438L29.9513 470.614L29.124 471.176L28.2967 471.738L31.5727 476.562L32.4 476ZM29.124 471.176H30.124V454.256H29.124H28.124V471.176H29.124ZM29.124 454.256L29.8422 454.952L33.1902 451.496L32.472 450.8L31.7538 450.104L28.4058 453.56L29.124 454.256ZM33.48 470.384L32.6509 470.943L33.6949 472.491L34.524 471.932L35.3531 471.373L34.3091 469.825L33.48 470.384ZM34.524 471.932V472.932H41.436V471.932V470.932H34.524V471.932ZM41.436 471.932L42.161 472.621L42.845 471.901L42.12 471.212L41.395 470.523L40.711 471.243L41.436 471.932ZM42.12 471.212H43.12V456.416H42.12H41.12V471.212H42.12ZM42.12 456.416L42.9491 455.857L41.9051 454.309L41.076 454.868L40.2469 455.427L41.2909 456.975L42.12 456.416ZM41.076 454.868V453.868H34.128V454.868V455.868H41.076V454.868ZM34.128 454.868L33.3847 454.199L32.7367 454.919L33.48 455.588L34.2233 456.257L34.8713 455.537L34.128 454.868ZM33.48 455.588H32.48V470.384H33.48H34.48V455.588H33.48ZM28.368 492.8V491.8H27.368V492.8H28.368ZM32.724 492.8H33.724V491.8H32.724V492.8ZM32.724 510.368H31.724V510.673L31.8938 510.925L32.724 510.368ZM34.416 512.888L33.5858 513.445L33.8829 513.888H34.416V512.888ZM34.596 512.888V513.888H34.9996L35.2901 513.608L34.596 512.888ZM35.604 511.916L36.2981 512.636L36.604 512.341V511.916H35.604ZM35.604 502.34V501.34H34.604V502.34H35.604ZM39.96 502.34H40.96V501.34H39.96V502.34ZM39.96 510.872H38.96V511.148L39.1012 511.384L39.96 510.872ZM41.184 512.924L40.3252 513.436L40.6161 513.924H41.184V512.924ZM41.328 512.924V513.924H41.7691L42.0665 513.598L41.328 512.924ZM42.84 511.268L43.5785 511.942L43.84 511.656V511.268H42.84ZM42.84 492.8V491.8H41.84V492.8H42.84ZM47.196 492.8H48.196V491.8H47.196V492.8ZM47.196 513.176L47.9137 513.872L48.196 513.581V513.176H47.196ZM42.516 518V519H42.9391L43.2337 518.696L42.516 518ZM39.132 518L38.2666 518.501L38.5554 519H39.132V518ZM37.944 515.948L38.8094 515.447L38.1321 514.277L37.2117 515.267L37.944 515.948ZM36.036 518V519H36.4717L36.7683 518.681L36.036 518ZM32.688 518L31.8588 518.559L32.1561 519H32.688V518ZM28.368 511.592H27.368V511.898L27.5388 512.151L28.368 511.592ZM28.368 492.8V493.8H32.724V492.8V491.8H28.368V492.8ZM32.724 492.8H31.724V510.368H32.724H33.724V492.8H32.724ZM32.724 510.368L31.8938 510.925L33.5858 513.445L34.416 512.888L35.2462 512.331L33.5542 509.811L32.724 510.368ZM34.416 512.888V513.888H34.596V512.888V511.888H34.416V512.888ZM34.596 512.888L35.2901 513.608L36.2981 512.636L35.604 511.916L34.9099 511.196L33.9019 512.168L34.596 512.888ZM35.604 511.916H36.604V502.34H35.604H34.604V511.916H35.604ZM35.604 502.34V503.34H39.96V502.34V501.34H35.604V502.34ZM39.96 502.34H38.96V510.872H39.96H40.96V502.34H39.96ZM39.96 510.872L39.1012 511.384L40.3252 513.436L41.184 512.924L42.0428 512.412L40.8188 510.36L39.96 510.872ZM41.184 512.924V513.924H41.328V512.924V511.924H41.184V512.924ZM41.328 512.924L42.0665 513.598L43.5785 511.942L42.84 511.268L42.1015 510.594L40.5895 512.25L41.328 512.924ZM42.84 511.268H43.84V492.8H42.84H41.84V511.268H42.84ZM42.84 492.8V493.8H47.196V492.8V491.8H42.84V492.8ZM47.196 492.8H46.196V513.176H47.196H48.196V492.8H47.196ZM47.196 513.176L46.4783 512.48L41.7983 517.304L42.516 518L43.2337 518.696L47.9137 513.872L47.196 513.176ZM42.516 518V517H39.132V518V519H42.516V518ZM39.132 518L39.9974 517.499L38.8094 515.447L37.944 515.948L37.0786 516.449L38.2666 518.501L39.132 518ZM37.944 515.948L37.2117 515.267L35.3037 517.319L36.036 518L36.7683 518.681L38.6763 516.629L37.944 515.948ZM36.036 518V517H32.688V518V519H36.036V518ZM32.688 518L33.5172 517.441L29.1972 511.033L28.368 511.592L27.5388 512.151L31.8588 518.559L32.688 518ZM28.368 511.592H29.368V492.8H28.368H27.368V511.592H28.368ZM29.088 534.8V533.8H28.088V534.8H29.088ZM46.512 534.8H47.512V533.8H46.512V534.8ZM46.512 538.868V539.868H47.512V538.868H46.512ZM39.96 538.868V537.868H38.96V538.868H39.96ZM39.96 555.932H38.96V556.932H39.96V555.932ZM46.512 555.932H47.512V554.932H46.512V555.932ZM46.512 560V561H47.512V560H46.512ZM29.088 560H28.088V561H29.088V560ZM29.088 555.932V554.932H28.088V555.932H29.088ZM35.604 555.932V556.932H36.604V555.932H35.604ZM35.604 538.868H36.604V537.868H35.604V538.868ZM29.088 538.868H28.088V539.868H29.088V538.868ZM29.088 534.8V535.8H46.512V534.8V533.8H29.088V534.8ZM46.512 534.8H45.512V538.868H46.512H47.512V534.8H46.512ZM46.512 538.868V537.868H39.96V538.868V539.868H46.512V538.868ZM39.96 538.868H38.96V555.932H39.96H40.96V538.868H39.96ZM39.96 555.932V556.932H46.512V555.932V554.932H39.96V555.932ZM46.512 555.932H45.512V560H46.512H47.512V555.932H46.512ZM46.512 560V559H29.088V560V561H46.512V560ZM29.088 560H30.088V555.932H29.088H28.088V560H29.088ZM29.088 555.932V556.932H35.604V555.932V554.932H29.088V555.932ZM35.604 555.932H36.604V538.868H35.604H34.604V555.932H35.604ZM35.604 538.868V537.868H29.088V538.868V539.868H35.604V538.868ZM29.088 538.868H30.088V534.8H29.088H28.088V538.868H29.088ZM32.076 576.8V575.8H31.6555L31.3614 576.1L32.076 576.8ZM46.116 576.8H47.116V575.8H46.116V576.8ZM46.116 580.868V581.868H47.116V580.868H46.116ZM33.732 580.868V579.868H33.2866L32.9887 580.199L33.732 580.868ZM33.084 581.588L32.3407 580.919L32.084 581.204V581.588H33.084ZM33.084 587.24H32.084V588.24H33.084V587.24ZM41.4 587.24H42.4V586.24H41.4V587.24ZM41.4 591.308V592.308H42.4V591.308H41.4ZM33.084 591.308V590.308H32.084V591.308H33.084ZM33.084 596.348H32.084V596.648L32.249 596.898L33.084 596.348ZM34.128 597.932L33.293 598.482L33.5894 598.932H34.128V597.932ZM46.116 597.932H47.116V596.932H46.116V597.932ZM46.116 602V603H47.116V602H46.116ZM31.968 602L31.1379 602.558L31.435 603H31.968V602ZM28.728 597.176H27.728V597.481L27.8979 597.734L28.728 597.176ZM28.728 580.22L28.0134 579.52L27.728 579.812V580.22H28.728ZM32.076 576.8V577.8H46.116V576.8V575.8H32.076V576.8ZM46.116 576.8H45.116V580.868H46.116H47.116V576.8H46.116ZM46.116 580.868V579.868H33.732V580.868V581.868H46.116V580.868ZM33.732 580.868L32.9887 580.199L32.3407 580.919L33.084 581.588L33.8273 582.257L34.4753 581.537L33.732 580.868ZM33.084 581.588H32.084V587.24H33.084H34.084V581.588H33.084ZM33.084 587.24V588.24H41.4V587.24V586.24H33.084V587.24ZM41.4 587.24H40.4V591.308H41.4H42.4V587.24H41.4ZM41.4 591.308V590.308H33.084V591.308V592.308H41.4V591.308ZM33.084 591.308H32.084V596.348H33.084H34.084V591.308H33.084ZM33.084 596.348L32.249 596.898L33.293 598.482L34.128 597.932L34.963 597.382L33.919 595.798L33.084 596.348ZM34.128 597.932V598.932H46.116V597.932V596.932H34.128V597.932ZM46.116 597.932H45.116V602H46.116H47.116V597.932H46.116ZM46.116 602V601H31.968V602V603H46.116V602ZM31.968 602L32.7981 601.442L29.5581 596.618L28.728 597.176L27.8979 597.734L31.1379 602.558L31.968 602ZM28.728 597.176H29.728V580.22H28.728H27.728V597.176H28.728ZM28.728 580.22L29.4426 580.92L32.7906 577.5L32.076 576.8L31.3614 576.1L28.0134 579.52L28.728 580.22Z" fill="#D3D3D3" mask="url(#path-4-outside-2_27_3)"/>
<defs>
<radialGradient id="paint0_radial_27_3" cx="0" cy="0" r="1" gradientUnits="userSpaceOnUse" gradientTransform="translate(356.335 57.2727) rotate(117.192) scale(561.429 492.282)">
<stop stop-color="#1C2226"/>
<stop offset="1" stop-color="#101214"/>
</radialGradient>
</defs>
</svg>
